<svg xmlns="http://www.w3.org/2000/svg" viewBox="0 0 720 320" width="720" height="320" role="img" aria-label="GOOGL daily candles, last 63 sessions">
<rect width="720" height="320" fill="#FFFFFF"/>
<text x="8" y="22" fill="#0C0D0E" font-size="16" font-weight="600" font-family="system-ui,-apple-system,Segoe UI,Roboto,sans-serif">GOOGL</text>
<text x="60" y="22" fill="#6E747B" font-size="11" font-family="ui-monospace,SFMono-Regular,Menlo,Consolas,monospace">daily candles &#183; 2026-06-05 to 2026-09-03</text>
<text x="670" y="22" fill="#B33124" font-size="12" text-anchor="end" font-family="ui-monospace,SFMono-Regular,Menlo,Consolas,monospace" transform="translate(50,0)">-7.1%</text>
<g font-family="ui-monospace,SFMono-Regular,Menlo,Consolas,monospace">
<line x1="8" y1="294.0" x2="662" y2="294.0" stroke="#E7E6E1" stroke-width="1"/>
<text x="670" y="297.5" fill="#6E747B" font-size="10">310.73</text>
<line x1="8" y1="210.7" x2="662" y2="210.7" stroke="#E7E6E1" stroke-width="1"/>
<text x="670" y="214.2" fill="#6E747B" font-size="10">336.70</text>
<line x1="8" y1="127.3" x2="662" y2="127.3" stroke="#E7E6E1" stroke-width="1"/>
<text x="670" y="130.8" fill="#6E747B" font-size="10">362.68</text>
<line x1="8" y1="44.0" x2="662" y2="44.0" stroke="#E7E6E1" stroke-width="1"/>
<text x="670" y="47.5" fill="#6E747B" font-size="10">388.65</text>
<line x1="13.2" y1="97.2" x2="13.2" y2="122.7" stroke="#046A44" stroke-width="1"/>
<rect x="10.0" y="108.6" width="6.4" height="7.0" fill="#046A44"/>
<line x1="23.6" y1="116.0" x2="23.6" y2="134.2" stroke="#B33124" stroke-width="1"/>
<rect x="20.4" y="119.3" width="6.4" height="6.0" fill="#B33124"/>
<line x1="34.0" y1="97.2" x2="34.0" y2="144.6" stroke="#B33124" stroke-width="1"/>
<rect x="30.7" y="113.2" width="6.4" height="9.1" fill="#B33124"/>
<line x1="44.3" y1="108.5" x2="44.3" y2="151.3" stroke="#B33124" stroke-width="1"/>
<rect x="41.1" y="125.7" width="6.4" height="21.8" fill="#B33124"/>
<line x1="54.7" y1="139.8" x2="54.7" y2="179.7" stroke="#046A44" stroke-width="1"/>
<rect x="51.5" y="143.1" width="6.4" height="5.9" fill="#046A44"/>
<line x1="65.1" y1="114.8" x2="65.1" y2="152.2" stroke="#B33124" stroke-width="1"/>
<rect x="61.9" y="127.5" width="6.4" height="9.4" fill="#B33124"/>
<line x1="75.5" y1="94.3" x2="75.5" y2="114.9" stroke="#046A44" stroke-width="1"/>
<rect x="72.3" y="105.9" width="6.4" height="4.6" fill="#046A44"/>
<line x1="85.9" y1="84.6" x2="85.9" y2="113.3" stroke="#046A44" stroke-width="1"/>
<rect x="82.6" y="93.4" width="6.4" height="11.7" fill="#046A44"/>
<line x1="96.2" y1="96.4" x2="96.2" y2="129.4" stroke="#B33124" stroke-width="1"/>
<rect x="93.0" y="106.6" width="6.4" height="17.1" fill="#B33124"/>
<line x1="106.6" y1="105.5" x2="106.6" y2="140.2" stroke="#046A44" stroke-width="1"/>
<rect x="103.4" y="110.2" width="6.4" height="7.3" fill="#046A44"/>
<line x1="117.0" y1="139.4" x2="117.0" y2="194.6" stroke="#B33124" stroke-width="1"/>
<rect x="113.8" y="142.5" width="6.4" height="26.5" fill="#B33124"/>
<line x1="127.4" y1="170.3" x2="127.4" y2="199.4" stroke="#046A44" stroke-width="1"/>
<rect x="124.2" y="180.4" width="6.4" height="17.5" fill="#046A44"/>
<line x1="137.8" y1="156.8" x2="137.8" y2="193.9" stroke="#B33124" stroke-width="1"/>
<rect x="134.5" y="171.1" width="6.4" height="12.0" fill="#B33124"/>
<line x1="148.1" y1="182.2" x2="148.1" y2="213.4" stroke="#046A44" stroke-width="1"/>
<rect x="144.9" y="188.2" width="6.4" height="22.4" fill="#046A44"/>
<line x1="158.5" y1="179.7" x2="158.5" y2="231.5" stroke="#B33124" stroke-width="1"/>
<rect x="155.3" y="191.9" width="6.4" height="16.6" fill="#B33124"/>
<line x1="168.9" y1="154.1" x2="168.9" y2="197.9" stroke="#046A44" stroke-width="1"/>
<rect x="165.7" y="156.3" width="6.4" height="37.9" fill="#046A44"/>
<line x1="179.3" y1="140.4" x2="179.3" y2="166.7" stroke="#046A44" stroke-width="1"/>
<rect x="176.1" y="144.4" width="6.4" height="11.2" fill="#046A44"/>
<line x1="189.7" y1="126.4" x2="189.7" y2="147.4" stroke="#046A44" stroke-width="1"/>
<rect x="186.4" y="132.0" width="6.4" height="9.1" fill="#046A44"/>
<line x1="200.0" y1="122.4" x2="200.0" y2="157.0" stroke="#046A44" stroke-width="1"/>
<rect x="196.8" y="136.2" width="6.4" height="1.4" fill="#046A44"/>
<line x1="210.4" y1="110.5" x2="210.4" y2="144.3" stroke="#046A44" stroke-width="1"/>
<rect x="207.2" y="115.2" width="6.4" height="15.8" fill="#046A44"/>
<line x1="220.8" y1="93.7" x2="220.8" y2="118.3" stroke="#B33124" stroke-width="1"/>
<rect x="217.6" y="106.8" width="6.4" height="6.5" fill="#B33124"/>
<line x1="231.2" y1="110.8" x2="231.2" y2="142.3" stroke="#B33124" stroke-width="1"/>
<rect x="228.0" y="120.7" width="6.4" height="9.1" fill="#B33124"/>
<line x1="241.6" y1="137.0" x2="241.6" y2="164.5" stroke="#046A44" stroke-width="1"/>
<rect x="238.4" y="139.5" width="6.4" height="14.7" fill="#046A44"/>
<line x1="252.0" y1="142.9" x2="252.0" y2="159.2" stroke="#B33124" stroke-width="1"/>
<rect x="248.7" y="143.8" width="6.4" height="1.1" fill="#B33124"/>
<line x1="262.3" y1="141.9" x2="262.3" y2="162.4" stroke="#B33124" stroke-width="1"/>
<rect x="259.1" y="148.1" width="6.4" height="11.8" fill="#B33124"/>
<line x1="272.7" y1="135.4" x2="272.7" y2="164.5" stroke="#046A44" stroke-width="1"/>
<rect x="269.5" y="137.5" width="6.4" height="26.7" fill="#046A44"/>
<line x1="283.1" y1="92.1" x2="283.1" y2="143.1" stroke="#046A44" stroke-width="1"/>
<rect x="279.9" y="100.9" width="6.4" height="41.5" fill="#046A44"/>
<line x1="293.5" y1="86.9" x2="293.5" y2="160.6" stroke="#B33124" stroke-width="1"/>
<rect x="290.3" y="94.0" width="6.4" height="59.7" fill="#B33124"/>
<line x1="303.9" y1="172.8" x2="303.9" y2="195.7" stroke="#046A44" stroke-width="1"/>
<rect x="300.6" y="178.4" width="6.4" height="2.5" fill="#046A44"/>
<line x1="314.2" y1="137.0" x2="314.2" y2="166.3" stroke="#046A44" stroke-width="1"/>
<rect x="311.0" y="161.6" width="6.4" height="3.6" fill="#046A44"/>
<line x1="324.6" y1="163.8" x2="324.6" y2="177.6" stroke="#B33124" stroke-width="1"/>
<rect x="321.4" y="163.8" width="6.4" height="13.4" fill="#B33124"/>
<line x1="335.0" y1="168.2" x2="335.0" y2="194.5" stroke="#B33124" stroke-width="1"/>
<rect x="331.8" y="173.9" width="6.4" height="19.5" fill="#B33124"/>
<line x1="345.4" y1="249.8" x2="345.4" y2="280.6" stroke="#B33124" stroke-width="1"/>
<rect x="342.2" y="260.6" width="6.4" height="11.0" fill="#B33124"/>
<line x1="355.8" y1="250.8" x2="355.8" y2="272.8" stroke="#046A44" stroke-width="1"/>
<rect x="352.5" y="265.1" width="6.4" height="4.2" fill="#046A44"/>
<line x1="366.1" y1="230.8" x2="366.1" y2="250.0" stroke="#046A44" stroke-width="1"/>
<rect x="362.9" y="243.2" width="6.4" height="4.9" fill="#046A44"/>
<line x1="376.5" y1="213.3" x2="376.5" y2="250.0" stroke="#046A44" stroke-width="1"/>
<rect x="373.3" y="220.3" width="6.4" height="18.6" fill="#046A44"/>
<line x1="386.9" y1="192.1" x2="386.9" y2="227.0" stroke="#046A44" stroke-width="1"/>
<rect x="383.7" y="210.6" width="6.4" height="6.5" fill="#046A44"/>
<line x1="397.3" y1="211.3" x2="397.3" y2="231.1" stroke="#B33124" stroke-width="1"/>
<rect x="394.1" y="218.7" width="6.4" height="1.7" fill="#B33124"/>
<line x1="407.7" y1="140.5" x2="407.7" y2="200.1" stroke="#046A44" stroke-width="1"/>
<rect x="404.4" y="148.3" width="6.4" height="49.1" fill="#046A44"/>
<line x1="418.0" y1="82.4" x2="418.0" y2="125.2" stroke="#046A44" stroke-width="1"/>
<rect x="414.8" y="92.6" width="6.4" height="25.9" fill="#046A44"/>
<line x1="428.4" y1="70.1" x2="428.4" y2="111.9" stroke="#046A44" stroke-width="1"/>
<rect x="425.2" y="79.3" width="6.4" height="30.3" fill="#046A44"/>
<line x1="438.8" y1="57.4" x2="438.8" y2="146.3" stroke="#B33124" stroke-width="1"/>
<rect x="435.6" y="61.1" width="6.4" height="67.1" fill="#B33124"/>
<line x1="449.2" y1="122.7" x2="449.2" y2="145.9" stroke="#B33124" stroke-width="1"/>
<rect x="446.0" y="133.5" width="6.4" height="9.7" fill="#B33124"/>
<line x1="459.6" y1="139.5" x2="459.6" y2="155.9" stroke="#B33124" stroke-width="1"/>
<rect x="456.4" y="146.4" width="6.4" height="7.8" fill="#B33124"/>
<line x1="470.0" y1="143.6" x2="470.0" y2="159.3" stroke="#046A44" stroke-width="1"/>
<rect x="466.7" y="143.9" width="6.4" height="7.5" fill="#046A44"/>
<line x1="480.3" y1="146.2" x2="480.3" y2="189.2" stroke="#B33124" stroke-width="1"/>
<rect x="477.1" y="149.1" width="6.4" height="38.8" fill="#B33124"/>
<line x1="490.7" y1="179.3" x2="490.7" y2="197.3" stroke="#B33124" stroke-width="1"/>
<rect x="487.5" y="179.8" width="6.4" height="8.9" fill="#B33124"/>
<line x1="501.1" y1="174.6" x2="501.1" y2="188.0" stroke="#046A44" stroke-width="1"/>
<rect x="497.9" y="179.7" width="6.4" height="1.9" fill="#046A44"/>
<line x1="511.5" y1="166.6" x2="511.5" y2="185.6" stroke="#B33124" stroke-width="1"/>
<rect x="508.3" y="178.3" width="6.4" height="2.9" fill="#B33124"/>
<line x1="521.9" y1="176.8" x2="521.9" y2="193.9" stroke="#B33124" stroke-width="1"/>
<rect x="518.6" y="180.0" width="6.4" height="7.3" fill="#B33124"/>
<line x1="532.2" y1="184.5" x2="532.2" y2="199.5" stroke="#046A44" stroke-width="1"/>
<rect x="529.0" y="186.6" width="6.4" height="5.7" fill="#046A44"/>
<line x1="542.6" y1="178.5" x2="542.6" y2="198.0" stroke="#046A44" stroke-width="1"/>
<rect x="539.4" y="184.9" width="6.4" height="7.3" fill="#046A44"/>
<line x1="553.0" y1="187.6" x2="553.0" y2="204.7" stroke="#B33124" stroke-width="1"/>
<rect x="549.8" y="190.3" width="6.4" height="7.7" fill="#B33124"/>
<line x1="563.4" y1="180.2" x2="563.4" y2="198.8" stroke="#046A44" stroke-width="1"/>
<rect x="560.2" y="184.6" width="6.4" height="7.2" fill="#046A44"/>
<line x1="573.8" y1="162.9" x2="573.8" y2="192.1" stroke="#046A44" stroke-width="1"/>
<rect x="570.5" y="174.2" width="6.4" height="14.2" fill="#046A44"/>
<line x1="584.1" y1="167.5" x2="584.1" y2="182.1" stroke="#B33124" stroke-width="1"/>
<rect x="580.9" y="169.2" width="6.4" height="8.6" fill="#B33124"/>
<line x1="594.5" y1="178.0" x2="594.5" y2="199.5" stroke="#B33124" stroke-width="1"/>
<rect x="591.3" y="178.8" width="6.4" height="14.8" fill="#B33124"/>
<line x1="604.9" y1="194.7" x2="604.9" y2="204.8" stroke="#046A44" stroke-width="1"/>
<rect x="601.7" y="198.0" width="6.4" height="3.1" fill="#046A44"/>
<line x1="615.3" y1="170.8" x2="615.3" y2="199.2" stroke="#046A44" stroke-width="1"/>
<rect x="612.1" y="178.9" width="6.4" height="18.9" fill="#046A44"/>
<line x1="625.7" y1="185.4" x2="625.7" y2="209.2" stroke="#B33124" stroke-width="1"/>
<rect x="622.4" y="187.8" width="6.4" height="14.4" fill="#B33124"/>
<line x1="636.0" y1="209.1" x2="636.0" y2="222.4" stroke="#B33124" stroke-width="1"/>
<rect x="632.8" y="212.9" width="6.4" height="3.1" fill="#B33124"/>
<line x1="646.4" y1="200.1" x2="646.4" y2="223.1" stroke="#046A44" stroke-width="1"/>
<rect x="643.2" y="209.3" width="6.4" height="9.8" fill="#046A44"/>
<line x1="656.8" y1="185.1" x2="656.8" y2="199.9" stroke="#046A44" stroke-width="1"/>
<rect x="653.6" y="192.1" width="6.4" height="6.8" fill="#046A44"/>
</g>
<text x="8" y="312" fill="#6E747B" font-size="9.5" font-family="ui-monospace,SFMono-Regular,Menlo,Consolas,monospace">v2v.investing &#183; last close 342.48</text>
</svg>
