<svg xmlns="http://www.w3.org/2000/svg" viewBox="0 0 720 320" width="720" height="320" role="img" aria-label="HOOD daily candles, last 63 sessions">
<rect width="720" height="320" fill="#FFFFFF"/>
<text x="8" y="22" fill="#0C0D0E" font-size="16" font-weight="600" font-family="system-ui,-apple-system,Segoe UI,Roboto,sans-serif">HOOD</text>
<text x="60" y="22" fill="#6E747B" font-size="11" font-family="ui-monospace,SFMono-Regular,Menlo,Consolas,monospace">daily candles &#183; 2026-06-09 to 2026-09-08</text>
<text x="670" y="22" fill="#046A44" font-size="12" text-anchor="end" font-family="ui-monospace,SFMono-Regular,Menlo,Consolas,monospace" transform="translate(50,0)">+40.1%</text>
<g font-family="ui-monospace,SFMono-Regular,Menlo,Consolas,monospace">
<line x1="8" y1="294.0" x2="662" y2="294.0" stroke="#E7E6E1" stroke-width="1"/>
<text x="670" y="297.5" fill="#6E747B" font-size="10">76.15</text>
<line x1="8" y1="210.7" x2="662" y2="210.7" stroke="#E7E6E1" stroke-width="1"/>
<text x="670" y="214.2" fill="#6E747B" font-size="10">93.43</text>
<line x1="8" y1="127.3" x2="662" y2="127.3" stroke="#E7E6E1" stroke-width="1"/>
<text x="670" y="130.8" fill="#6E747B" font-size="10">110.72</text>
<line x1="8" y1="44.0" x2="662" y2="44.0" stroke="#E7E6E1" stroke-width="1"/>
<text x="670" y="47.5" fill="#6E747B" font-size="10">128.00</text>
<line x1="13.2" y1="236.5" x2="13.2" y2="280.6" stroke="#B33124" stroke-width="1"/>
<rect x="10.0" y="247.1" width="6.4" height="10.1" fill="#B33124"/>
<line x1="23.6" y1="220.2" x2="23.6" y2="255.8" stroke="#046A44" stroke-width="1"/>
<rect x="20.4" y="244.8" width="6.4" height="10.9" fill="#046A44"/>
<line x1="34.0" y1="209.7" x2="34.0" y2="247.9" stroke="#046A44" stroke-width="1"/>
<rect x="30.7" y="216.5" width="6.4" height="24.8" fill="#046A44"/>
<line x1="44.3" y1="197.8" x2="44.3" y2="226.2" stroke="#046A44" stroke-width="1"/>
<rect x="41.1" y="211.8" width="6.4" height="2.2" fill="#046A44"/>
<line x1="54.7" y1="174.8" x2="54.7" y2="191.3" stroke="#B33124" stroke-width="1"/>
<rect x="51.5" y="185.2" width="6.4" height="2.9" fill="#B33124"/>
<line x1="65.1" y1="169.9" x2="65.1" y2="205.2" stroke="#B33124" stroke-width="1"/>
<rect x="61.9" y="178.2" width="6.4" height="16.7" fill="#B33124"/>
<line x1="75.5" y1="127.3" x2="75.5" y2="199.5" stroke="#046A44" stroke-width="1"/>
<rect x="72.3" y="153.9" width="6.4" height="44.7" fill="#046A44"/>
<line x1="85.9" y1="135.2" x2="85.9" y2="162.3" stroke="#046A44" stroke-width="1"/>
<rect x="82.6" y="139.7" width="6.4" height="1.6" fill="#046A44"/>
<line x1="96.2" y1="118.7" x2="96.2" y2="153.6" stroke="#B33124" stroke-width="1"/>
<rect x="93.0" y="140.4" width="6.4" height="11.0" fill="#B33124"/>
<line x1="106.6" y1="150.1" x2="106.6" y2="174.0" stroke="#046A44" stroke-width="1"/>
<rect x="103.4" y="163.3" width="6.4" height="7.7" fill="#046A44"/>
<line x1="117.0" y1="158.4" x2="117.0" y2="196.9" stroke="#B33124" stroke-width="1"/>
<rect x="113.8" y="167.7" width="6.4" height="24.9" fill="#B33124"/>
<line x1="127.4" y1="182.9" x2="127.4" y2="213.7" stroke="#B33124" stroke-width="1"/>
<rect x="124.2" y="184.8" width="6.4" height="25.7" fill="#B33124"/>
<line x1="137.8" y1="181.7" x2="137.8" y2="212.4" stroke="#046A44" stroke-width="1"/>
<rect x="134.5" y="185.3" width="6.4" height="26.4" fill="#046A44"/>
<line x1="148.1" y1="165.3" x2="148.1" y2="188.4" stroke="#046A44" stroke-width="1"/>
<rect x="144.9" y="170.2" width="6.4" height="5.6" fill="#046A44"/>
<line x1="158.5" y1="164.3" x2="158.5" y2="180.6" stroke="#B33124" stroke-width="1"/>
<rect x="155.3" y="170.0" width="6.4" height="7.7" fill="#B33124"/>
<line x1="168.9" y1="133.1" x2="168.9" y2="177.1" stroke="#046A44" stroke-width="1"/>
<rect x="165.7" y="137.3" width="6.4" height="38.5" fill="#046A44"/>
<line x1="179.3" y1="82.3" x2="179.3" y2="126.3" stroke="#B33124" stroke-width="1"/>
<rect x="176.1" y="117.5" width="6.4" height="1.0" fill="#B33124"/>
<line x1="189.7" y1="89.1" x2="189.7" y2="124.0" stroke="#046A44" stroke-width="1"/>
<rect x="186.4" y="94.4" width="6.4" height="29.6" fill="#046A44"/>
<line x1="200.0" y1="92.9" x2="200.0" y2="118.6" stroke="#B33124" stroke-width="1"/>
<rect x="196.8" y="102.9" width="6.4" height="13.9" fill="#B33124"/>
<line x1="210.4" y1="110.9" x2="210.4" y2="136.1" stroke="#046A44" stroke-width="1"/>
<rect x="207.2" y="113.8" width="6.4" height="12.9" fill="#046A44"/>
<line x1="220.8" y1="93.9" x2="220.8" y2="122.9" stroke="#046A44" stroke-width="1"/>
<rect x="217.6" y="106.1" width="6.4" height="13.9" fill="#046A44"/>
<line x1="231.2" y1="85.3" x2="231.2" y2="136.5" stroke="#B33124" stroke-width="1"/>
<rect x="228.0" y="86.6" width="6.4" height="34.7" fill="#B33124"/>
<line x1="241.6" y1="112.9" x2="241.6" y2="136.4" stroke="#B33124" stroke-width="1"/>
<rect x="238.4" y="124.7" width="6.4" height="6.8" fill="#B33124"/>
<line x1="252.0" y1="113.0" x2="252.0" y2="135.1" stroke="#046A44" stroke-width="1"/>
<rect x="248.7" y="114.1" width="6.4" height="11.7" fill="#046A44"/>
<line x1="262.3" y1="99.0" x2="262.3" y2="120.6" stroke="#046A44" stroke-width="1"/>
<rect x="259.1" y="104.1" width="6.4" height="2.7" fill="#046A44"/>
<line x1="272.7" y1="109.0" x2="272.7" y2="152.6" stroke="#B33124" stroke-width="1"/>
<rect x="269.5" y="110.9" width="6.4" height="39.1" fill="#B33124"/>
<line x1="283.1" y1="159.2" x2="283.1" y2="195.4" stroke="#B33124" stroke-width="1"/>
<rect x="279.9" y="177.2" width="6.4" height="2.0" fill="#B33124"/>
<line x1="293.5" y1="166.5" x2="293.5" y2="185.7" stroke="#B33124" stroke-width="1"/>
<rect x="290.3" y="167.0" width="6.4" height="15.5" fill="#B33124"/>
<line x1="303.9" y1="139.4" x2="303.9" y2="165.4" stroke="#046A44" stroke-width="1"/>
<rect x="300.6" y="148.3" width="6.4" height="17.1" fill="#046A44"/>
<line x1="314.2" y1="145.8" x2="314.2" y2="158.1" stroke="#B33124" stroke-width="1"/>
<rect x="311.0" y="156.2" width="6.4" height="1.2" fill="#B33124"/>
<line x1="324.6" y1="159.1" x2="324.6" y2="182.3" stroke="#B33124" stroke-width="1"/>
<rect x="321.4" y="169.9" width="6.4" height="1.4" fill="#B33124"/>
<line x1="335.0" y1="178.6" x2="335.0" y2="212.6" stroke="#B33124" stroke-width="1"/>
<rect x="331.8" y="178.7" width="6.4" height="24.9" fill="#B33124"/>
<line x1="345.4" y1="181.7" x2="345.4" y2="211.8" stroke="#B33124" stroke-width="1"/>
<rect x="342.2" y="193.6" width="6.4" height="6.4" fill="#B33124"/>
<line x1="355.8" y1="208.6" x2="355.8" y2="235.9" stroke="#046A44" stroke-width="1"/>
<rect x="352.5" y="213.9" width="6.4" height="1.0" fill="#046A44"/>
<line x1="366.1" y1="211.2" x2="366.1" y2="234.0" stroke="#B33124" stroke-width="1"/>
<rect x="362.9" y="216.6" width="6.4" height="11.4" fill="#B33124"/>
<line x1="376.5" y1="214.8" x2="376.5" y2="245.5" stroke="#B33124" stroke-width="1"/>
<rect x="373.3" y="222.8" width="6.4" height="20.8" fill="#B33124"/>
<line x1="386.9" y1="229.6" x2="386.9" y2="257.7" stroke="#046A44" stroke-width="1"/>
<rect x="383.7" y="243.8" width="6.4" height="2.1" fill="#046A44"/>
<line x1="397.3" y1="215.9" x2="397.3" y2="249.9" stroke="#046A44" stroke-width="1"/>
<rect x="394.1" y="225.6" width="6.4" height="17.6" fill="#046A44"/>
<line x1="407.7" y1="200.2" x2="407.7" y2="226.9" stroke="#046A44" stroke-width="1"/>
<rect x="404.4" y="210.3" width="6.4" height="4.3" fill="#046A44"/>
<line x1="418.0" y1="200.5" x2="418.0" y2="216.1" stroke="#B33124" stroke-width="1"/>
<rect x="414.8" y="208.1" width="6.4" height="5.6" fill="#B33124"/>
<line x1="428.4" y1="214.7" x2="428.4" y2="226.2" stroke="#046A44" stroke-width="1"/>
<rect x="425.2" y="223.8" width="6.4" height="1.0" fill="#046A44"/>
<line x1="438.8" y1="199.5" x2="438.8" y2="215.1" stroke="#046A44" stroke-width="1"/>
<rect x="435.6" y="211.4" width="6.4" height="1.8" fill="#046A44"/>
<line x1="449.2" y1="198.5" x2="449.2" y2="215.7" stroke="#046A44" stroke-width="1"/>
<rect x="446.0" y="205.4" width="6.4" height="6.2" fill="#046A44"/>
<line x1="459.6" y1="202.5" x2="459.6" y2="214.0" stroke="#B33124" stroke-width="1"/>
<rect x="456.4" y="203.3" width="6.4" height="2.8" fill="#B33124"/>
<line x1="470.0" y1="192.7" x2="470.0" y2="210.8" stroke="#B33124" stroke-width="1"/>
<rect x="466.7" y="193.5" width="6.4" height="10.0" fill="#B33124"/>
<line x1="480.3" y1="177.3" x2="480.3" y2="196.3" stroke="#046A44" stroke-width="1"/>
<rect x="477.1" y="182.0" width="6.4" height="13.8" fill="#046A44"/>
<line x1="490.7" y1="186.6" x2="490.7" y2="201.0" stroke="#B33124" stroke-width="1"/>
<rect x="487.5" y="188.6" width="6.4" height="11.8" fill="#B33124"/>
<line x1="501.1" y1="193.8" x2="501.1" y2="208.9" stroke="#046A44" stroke-width="1"/>
<rect x="497.9" y="197.1" width="6.4" height="6.2" fill="#046A44"/>
<line x1="511.5" y1="205.1" x2="511.5" y2="220.3" stroke="#B33124" stroke-width="1"/>
<rect x="508.3" y="210.6" width="6.4" height="9.2" fill="#B33124"/>
<line x1="521.9" y1="181.8" x2="521.9" y2="216.7" stroke="#046A44" stroke-width="1"/>
<rect x="518.6" y="199.4" width="6.4" height="13.8" fill="#046A44"/>
<line x1="532.2" y1="171.2" x2="532.2" y2="209.6" stroke="#B33124" stroke-width="1"/>
<rect x="529.0" y="174.9" width="6.4" height="27.7" fill="#B33124"/>
<line x1="542.6" y1="132.2" x2="542.6" y2="184.9" stroke="#046A44" stroke-width="1"/>
<rect x="539.4" y="139.8" width="6.4" height="33.9" fill="#046A44"/>
<line x1="553.0" y1="135.0" x2="553.0" y2="163.9" stroke="#B33124" stroke-width="1"/>
<rect x="549.8" y="146.0" width="6.4" height="15.6" fill="#B33124"/>
<line x1="563.4" y1="119.0" x2="563.4" y2="165.5" stroke="#046A44" stroke-width="1"/>
<rect x="560.2" y="120.7" width="6.4" height="42.9" fill="#046A44"/>
<line x1="573.8" y1="123.1" x2="573.8" y2="139.2" stroke="#B33124" stroke-width="1"/>
<rect x="570.5" y="130.3" width="6.4" height="7.5" fill="#B33124"/>
<line x1="584.1" y1="120.8" x2="584.1" y2="142.8" stroke="#B33124" stroke-width="1"/>
<rect x="580.9" y="127.4" width="6.4" height="4.5" fill="#B33124"/>
<line x1="594.5" y1="128.4" x2="594.5" y2="159.0" stroke="#B33124" stroke-width="1"/>
<rect x="591.3" y="137.3" width="6.4" height="21.2" fill="#B33124"/>
<line x1="604.9" y1="152.6" x2="604.9" y2="175.7" stroke="#046A44" stroke-width="1"/>
<rect x="601.7" y="155.8" width="6.4" height="6.7" fill="#046A44"/>
<line x1="615.3" y1="145.4" x2="615.3" y2="167.2" stroke="#B33124" stroke-width="1"/>
<rect x="612.1" y="153.3" width="6.4" height="8.8" fill="#B33124"/>
<line x1="625.7" y1="143.0" x2="625.7" y2="169.9" stroke="#046A44" stroke-width="1"/>
<rect x="622.4" y="145.3" width="6.4" height="15.8" fill="#046A44"/>
<line x1="636.0" y1="59.0" x2="636.0" y2="116.1" stroke="#046A44" stroke-width="1"/>
<rect x="632.8" y="59.8" width="6.4" height="52.7" fill="#046A44"/>
<line x1="646.4" y1="59.9" x2="646.4" y2="83.4" stroke="#046A44" stroke-width="1"/>
<rect x="643.2" y="72.4" width="6.4" height="7.9" fill="#046A44"/>
<line x1="656.8" y1="57.4" x2="656.8" y2="96.6" stroke="#B33124" stroke-width="1"/>
<rect x="653.6" y="58.1" width="6.4" height="37.3" fill="#B33124"/>
</g>
<text x="8" y="312" fill="#6E747B" font-size="9.5" font-family="ui-monospace,SFMono-Regular,Menlo,Consolas,monospace">v2v.investing &#183; last close 117.34</text>
</svg>
