<svg xmlns="http://www.w3.org/2000/svg" viewBox="0 0 720 320" width="720" height="320" role="img" aria-label="NVDA daily candles, last 63 sessions">
<rect width="720" height="320" fill="#FFFFFF"/>
<text x="8" y="22" fill="#0C0D0E" font-size="16" font-weight="600" font-family="system-ui,-apple-system,Segoe UI,Roboto,sans-serif">NVDA</text>
<text x="60" y="22" fill="#6E747B" font-size="11" font-family="ui-monospace,SFMono-Regular,Menlo,Consolas,monospace">daily candles &#183; 2026-05-14 to 2026-08-13</text>
<text x="670" y="22" fill="#B33124" font-size="12" text-anchor="end" font-family="ui-monospace,SFMono-Regular,Menlo,Consolas,monospace" transform="translate(50,0)">-4.4%</text>
<g font-family="ui-monospace,SFMono-Regular,Menlo,Consolas,monospace">
<line x1="8" y1="294.0" x2="662" y2="294.0" stroke="#E7E6E1" stroke-width="1"/>
<text x="670" y="297.5" fill="#6E747B" font-size="10">187.00</text>
<line x1="8" y1="210.7" x2="662" y2="210.7" stroke="#E7E6E1" stroke-width="1"/>
<text x="670" y="214.2" fill="#6E747B" font-size="10">204.45</text>
<line x1="8" y1="127.3" x2="662" y2="127.3" stroke="#E7E6E1" stroke-width="1"/>
<text x="670" y="130.8" fill="#6E747B" font-size="10">221.89</text>
<line x1="8" y1="44.0" x2="662" y2="44.0" stroke="#E7E6E1" stroke-width="1"/>
<text x="670" y="47.5" fill="#6E747B" font-size="10">239.34</text>
<line x1="13.2" y1="57.4" x2="13.2" y2="92.0" stroke="#046A44" stroke-width="1"/>
<rect x="10.0" y="61.2" width="6.4" height="28.1" fill="#046A44"/>
<line x1="23.6" y1="81.5" x2="23.6" y2="116.1" stroke="#B33124" stroke-width="1"/>
<rect x="20.4" y="89.8" width="6.4" height="21.2" fill="#B33124"/>
<line x1="34.0" y1="88.6" x2="34.0" y2="144.2" stroke="#B33124" stroke-width="1"/>
<rect x="30.7" y="89.2" width="6.4" height="36.1" fill="#B33124"/>
<line x1="44.3" y1="115.0" x2="44.3" y2="146.4" stroke="#046A44" stroke-width="1"/>
<rect x="41.1" y="133.5" width="6.4" height="4.7" fill="#046A44"/>
<line x1="54.7" y1="107.1" x2="54.7" y2="134.0" stroke="#046A44" stroke-width="1"/>
<rect x="51.5" y="119.8" width="6.4" height="1.4" fill="#046A44"/>
<line x1="65.1" y1="101.0" x2="65.1" y2="146.3" stroke="#B33124" stroke-width="1"/>
<rect x="61.9" y="125.4" width="6.4" height="13.3" fill="#B33124"/>
<line x1="75.5" y1="131.6" x2="75.5" y2="161.2" stroke="#B33124" stroke-width="1"/>
<rect x="72.3" y="132.1" width="6.4" height="26.6" fill="#B33124"/>
<line x1="85.9" y1="145.1" x2="85.9" y2="174.6" stroke="#B33124" stroke-width="1"/>
<rect x="82.6" y="152.9" width="6.4" height="8.0" fill="#B33124"/>
<line x1="96.2" y1="164.3" x2="96.2" y2="190.0" stroke="#B33124" stroke-width="1"/>
<rect x="93.0" y="164.5" width="6.4" height="7.3" fill="#B33124"/>
<line x1="106.6" y1="157.8" x2="106.6" y2="178.3" stroke="#046A44" stroke-width="1"/>
<rect x="103.4" y="163.8" width="6.4" height="14.2" fill="#046A44"/>
<line x1="117.0" y1="146.6" x2="117.0" y2="178.7" stroke="#B33124" stroke-width="1"/>
<rect x="113.8" y="162.3" width="6.4" height="16.4" fill="#B33124"/>
<line x1="127.4" y1="113.1" x2="127.4" y2="156.9" stroke="#046A44" stroke-width="1"/>
<rect x="124.2" y="115.6" width="6.4" height="41.2" fill="#046A44"/>
<line x1="137.8" y1="77.7" x2="137.8" y2="129.9" stroke="#B33124" stroke-width="1"/>
<rect x="134.5" y="102.1" width="6.4" height="20.8" fill="#B33124"/>
<line x1="148.1" y1="122.9" x2="148.1" y2="162.6" stroke="#B33124" stroke-width="1"/>
<rect x="144.9" y="128.2" width="6.4" height="33.3" fill="#B33124"/>
<line x1="158.5" y1="128.7" x2="158.5" y2="179.5" stroke="#046A44" stroke-width="1"/>
<rect x="155.3" y="142.8" width="6.4" height="22.7" fill="#046A44"/>
<line x1="168.9" y1="160.9" x2="168.9" y2="211.2" stroke="#B33124" stroke-width="1"/>
<rect x="165.7" y="162.5" width="6.4" height="45.0" fill="#B33124"/>
<line x1="179.3" y1="181.9" x2="179.3" y2="203.2" stroke="#B33124" stroke-width="1"/>
<rect x="176.1" y="183.3" width="6.4" height="7.4" fill="#B33124"/>
<line x1="189.7" y1="177.5" x2="189.7" y2="235.0" stroke="#B33124" stroke-width="1"/>
<rect x="186.4" y="181.2" width="6.4" height="11.6" fill="#B33124"/>
<line x1="200.0" y1="197.4" x2="200.0" y2="232.3" stroke="#B33124" stroke-width="1"/>
<rect x="196.8" y="210.7" width="6.4" height="19.2" fill="#B33124"/>
<line x1="210.4" y1="204.9" x2="210.4" y2="234.1" stroke="#046A44" stroke-width="1"/>
<rect x="207.2" y="208.6" width="6.4" height="16.1" fill="#046A44"/>
<line x1="220.8" y1="198.1" x2="220.8" y2="215.5" stroke="#046A44" stroke-width="1"/>
<rect x="217.6" y="207.1" width="6.4" height="1.6" fill="#046A44"/>
<line x1="231.2" y1="171.2" x2="231.2" y2="192.1" stroke="#046A44" stroke-width="1"/>
<rect x="228.0" y="172.4" width="6.4" height="16.9" fill="#046A44"/>
<line x1="241.6" y1="177.0" x2="241.6" y2="197.1" stroke="#B33124" stroke-width="1"/>
<rect x="238.4" y="178.5" width="6.4" height="18.0" fill="#B33124"/>
<line x1="252.0" y1="187.9" x2="252.0" y2="217.2" stroke="#B33124" stroke-width="1"/>
<rect x="248.7" y="191.2" width="6.4" height="18.5" fill="#B33124"/>
<line x1="262.3" y1="177.5" x2="262.3" y2="200.9" stroke="#046A44" stroke-width="1"/>
<rect x="259.1" y="180.8" width="6.4" height="16.0" fill="#046A44"/>
<line x1="272.7" y1="165.1" x2="272.7" y2="195.0" stroke="#B33124" stroke-width="1"/>
<rect x="269.5" y="177.3" width="6.4" height="13.3" fill="#B33124"/>
<line x1="283.1" y1="213.9" x2="283.1" y2="231.9" stroke="#B33124" stroke-width="1"/>
<rect x="279.9" y="221.5" width="6.4" height="10.2" fill="#B33124"/>
<line x1="293.5" y1="223.9" x2="293.5" y2="248.2" stroke="#B33124" stroke-width="1"/>
<rect x="290.3" y="231.3" width="6.4" height="5.3" fill="#B33124"/>
<line x1="303.9" y1="228.1" x2="303.9" y2="269.5" stroke="#B33124" stroke-width="1"/>
<rect x="300.6" y="231.5" width="6.4" height="20.7" fill="#B33124"/>
<line x1="314.2" y1="253.1" x2="314.2" y2="273.8" stroke="#B33124" stroke-width="1"/>
<rect x="311.0" y="264.8" width="6.4" height="2.8" fill="#B33124"/>
<line x1="324.6" y1="250.1" x2="324.6" y2="280.6" stroke="#046A44" stroke-width="1"/>
<rect x="321.4" y="255.9" width="6.4" height="5.3" fill="#046A44"/>
<line x1="335.0" y1="228.9" x2="335.0" y2="255.2" stroke="#046A44" stroke-width="1"/>
<rect x="331.8" y="231.5" width="6.4" height="13.6" fill="#046A44"/>
<line x1="345.4" y1="232.6" x2="345.4" y2="263.2" stroke="#046A44" stroke-width="1"/>
<rect x="342.2" y="243.5" width="6.4" height="6.6" fill="#046A44"/>
<line x1="355.8" y1="231.6" x2="355.8" y2="268.4" stroke="#B33124" stroke-width="1"/>
<rect x="352.5" y="245.6" width="6.4" height="11.0" fill="#B33124"/>
<line x1="366.1" y1="243.6" x2="366.1" y2="260.6" stroke="#046A44" stroke-width="1"/>
<rect x="362.9" y="253.1" width="6.4" height="5.4" fill="#046A44"/>
<line x1="376.5" y1="239.5" x2="376.5" y2="274.2" stroke="#046A44" stroke-width="1"/>
<rect x="373.3" y="246.6" width="6.4" height="21.8" fill="#046A44"/>
<line x1="386.9" y1="207.3" x2="386.9" y2="255.5" stroke="#046A44" stroke-width="1"/>
<rect x="383.7" y="212.2" width="6.4" height="42.7" fill="#046A44"/>
<line x1="397.3" y1="210.0" x2="397.3" y2="236.9" stroke="#B33124" stroke-width="1"/>
<rect x="394.1" y="210.6" width="6.4" height="8.0" fill="#B33124"/>
<line x1="407.7" y1="179.4" x2="407.7" y2="222.7" stroke="#046A44" stroke-width="1"/>
<rect x="404.4" y="179.6" width="6.4" height="42.8" fill="#046A44"/>
<line x1="418.0" y1="181.4" x2="418.0" y2="217.6" stroke="#B33124" stroke-width="1"/>
<rect x="414.8" y="191.1" width="6.4" height="23.9" fill="#B33124"/>
<line x1="428.4" y1="172.0" x2="428.4" y2="213.7" stroke="#046A44" stroke-width="1"/>
<rect x="425.2" y="175.5" width="6.4" height="17.2" fill="#046A44"/>
<line x1="438.8" y1="165.9" x2="438.8" y2="203.1" stroke="#046A44" stroke-width="1"/>
<rect x="435.6" y="172.2" width="6.4" height="2.6" fill="#046A44"/>
<line x1="449.2" y1="179.0" x2="449.2" y2="204.0" stroke="#B33124" stroke-width="1"/>
<rect x="446.0" y="183.3" width="6.4" height="13.2" fill="#B33124"/>
<line x1="459.6" y1="200.1" x2="459.6" y2="241.6" stroke="#046A44" stroke-width="1"/>
<rect x="456.4" y="218.5" width="6.4" height="1.0" fill="#046A44"/>
<line x1="470.0" y1="194.9" x2="470.0" y2="221.0" stroke="#B33124" stroke-width="1"/>
<rect x="466.7" y="203.9" width="6.4" height="12.4" fill="#B33124"/>
<line x1="480.3" y1="190.6" x2="480.3" y2="212.7" stroke="#B33124" stroke-width="1"/>
<rect x="477.1" y="195.9" width="6.4" height="1.2" fill="#B33124"/>
<line x1="490.7" y1="163.2" x2="490.7" y2="208.3" stroke="#046A44" stroke-width="1"/>
<rect x="487.5" y="174.3" width="6.4" height="29.8" fill="#046A44"/>
<line x1="501.1" y1="180.0" x2="501.1" y2="203.4" stroke="#B33124" stroke-width="1"/>
<rect x="497.9" y="186.7" width="6.4" height="3.3" fill="#B33124"/>
<line x1="511.5" y1="175.0" x2="511.5" y2="208.9" stroke="#B33124" stroke-width="1"/>
<rect x="508.3" y="196.3" width="6.4" height="2.9" fill="#B33124"/>
<line x1="521.9" y1="190.1" x2="521.9" y2="253.7" stroke="#B33124" stroke-width="1"/>
<rect x="518.6" y="192.7" width="6.4" height="55.8" fill="#B33124"/>
<line x1="532.2" y1="238.1" x2="532.2" y2="266.6" stroke="#046A44" stroke-width="1"/>
<rect x="529.0" y="246.2" width="6.4" height="9.6" fill="#046A44"/>
<line x1="542.6" y1="245.9" x2="542.6" y2="279.6" stroke="#B33124" stroke-width="1"/>
<rect x="539.4" y="251.7" width="6.4" height="27.9" fill="#B33124"/>
<line x1="553.0" y1="245.0" x2="553.0" y2="272.4" stroke="#046A44" stroke-width="1"/>
<rect x="549.8" y="255.6" width="6.4" height="7.6" fill="#046A44"/>
<line x1="563.4" y1="222.3" x2="563.4" y2="256.0" stroke="#046A44" stroke-width="1"/>
<rect x="560.2" y="228.3" width="6.4" height="11.0" fill="#046A44"/>
<line x1="573.8" y1="190.2" x2="573.8" y2="246.9" stroke="#046A44" stroke-width="1"/>
<rect x="570.5" y="200.2" width="6.4" height="42.7" fill="#046A44"/>
<line x1="584.1" y1="169.5" x2="584.1" y2="188.7" stroke="#046A44" stroke-width="1"/>
<rect x="580.9" y="174.9" width="6.4" height="3.1" fill="#046A44"/>
<line x1="594.5" y1="125.8" x2="594.5" y2="153.6" stroke="#046A44" stroke-width="1"/>
<rect x="591.3" y="140.1" width="6.4" height="11.3" fill="#046A44"/>
<line x1="604.9" y1="119.0" x2="604.9" y2="150.7" stroke="#B33124" stroke-width="1"/>
<rect x="601.7" y="129.1" width="6.4" height="12.1" fill="#B33124"/>
<line x1="615.3" y1="113.7" x2="615.3" y2="133.2" stroke="#046A44" stroke-width="1"/>
<rect x="612.1" y="117.5" width="6.4" height="11.6" fill="#046A44"/>
<line x1="625.7" y1="116.6" x2="625.7" y2="151.8" stroke="#B33124" stroke-width="1"/>
<rect x="622.4" y="120.1" width="6.4" height="27.9" fill="#B33124"/>
<line x1="636.0" y1="125.9" x2="636.0" y2="154.5" stroke="#B33124" stroke-width="1"/>
<rect x="632.8" y="126.0" width="6.4" height="22.3" fill="#B33124"/>
<line x1="646.4" y1="112.0" x2="646.4" y2="135.4" stroke="#046A44" stroke-width="1"/>
<rect x="643.2" y="116.8" width="6.4" height="14.6" fill="#046A44"/>
<line x1="656.8" y1="101.9" x2="656.8" y2="118.7" stroke="#046A44" stroke-width="1"/>
<rect x="653.6" y="111.1" width="6.4" height="1.2" fill="#046A44"/>
</g>
<text x="8" y="312" fill="#6E747B" font-size="9.5" font-family="ui-monospace,SFMono-Regular,Menlo,Consolas,monospace">v2v.investing &#183; last close 225.30</text>
</svg>
