<svg xmlns="http://www.w3.org/2000/svg" viewBox="0 0 720 320" width="720" height="320" role="img" aria-label="PLTR daily candles, last 63 sessions">
<rect width="720" height="320" fill="#FFFFFF"/>
<text x="8" y="22" fill="#0C0D0E" font-size="16" font-weight="600" font-family="system-ui,-apple-system,Segoe UI,Roboto,sans-serif">PLTR</text>
<text x="60" y="22" fill="#6E747B" font-size="11" font-family="ui-monospace,SFMono-Regular,Menlo,Consolas,monospace">daily candles &#183; 2026-05-06 to 2026-08-05</text>
<text x="670" y="22" fill="#046A44" font-size="12" text-anchor="end" font-family="ui-monospace,SFMono-Regular,Menlo,Consolas,monospace" transform="translate(50,0)">+18.4%</text>
<g font-family="ui-monospace,SFMono-Regular,Menlo,Consolas,monospace">
<line x1="8" y1="294.0" x2="662" y2="294.0" stroke="#E7E6E1" stroke-width="1"/>
<text x="670" y="297.5" fill="#6E747B" font-size="10">102.79</text>
<line x1="8" y1="210.7" x2="662" y2="210.7" stroke="#E7E6E1" stroke-width="1"/>
<text x="670" y="214.2" fill="#6E747B" font-size="10">125.07</text>
<line x1="8" y1="127.3" x2="662" y2="127.3" stroke="#E7E6E1" stroke-width="1"/>
<text x="670" y="130.8" fill="#6E747B" font-size="10">147.36</text>
<line x1="8" y1="44.0" x2="662" y2="44.0" stroke="#E7E6E1" stroke-width="1"/>
<text x="670" y="47.5" fill="#6E747B" font-size="10">169.64</text>
<line x1="13.2" y1="170.9" x2="13.2" y2="187.9" stroke="#046A44" stroke-width="1"/>
<rect x="10.0" y="178.1" width="6.4" height="1.0" fill="#046A44"/>
<line x1="23.6" y1="151.3" x2="23.6" y2="174.4" stroke="#046A44" stroke-width="1"/>
<rect x="20.4" y="165.9" width="6.4" height="7.3" fill="#046A44"/>
<line x1="34.0" y1="162.8" x2="34.0" y2="180.9" stroke="#046A44" stroke-width="1"/>
<rect x="30.7" y="163.1" width="6.4" height="7.2" fill="#046A44"/>
<line x1="44.3" y1="165.5" x2="44.3" y2="181.9" stroke="#046A44" stroke-width="1"/>
<rect x="41.1" y="166.5" width="6.4" height="7.4" fill="#046A44"/>
<line x1="54.7" y1="164.5" x2="54.7" y2="179.3" stroke="#B33124" stroke-width="1"/>
<rect x="51.5" y="167.6" width="6.4" height="2.2" fill="#B33124"/>
<line x1="65.1" y1="166.1" x2="65.1" y2="196.9" stroke="#B33124" stroke-width="1"/>
<rect x="61.9" y="177.3" width="6.4" height="14.8" fill="#B33124"/>
<line x1="75.5" y1="175.5" x2="75.5" y2="194.3" stroke="#046A44" stroke-width="1"/>
<rect x="72.3" y="178.3" width="6.4" height="15.3" fill="#046A44"/>
<line x1="85.9" y1="171.2" x2="85.9" y2="183.7" stroke="#046A44" stroke-width="1"/>
<rect x="82.6" y="177.3" width="6.4" height="4.5" fill="#046A44"/>
<line x1="96.2" y1="170.0" x2="96.2" y2="187.3" stroke="#046A44" stroke-width="1"/>
<rect x="93.0" y="173.0" width="6.4" height="9.9" fill="#046A44"/>
<line x1="106.6" y1="164.3" x2="106.6" y2="178.8" stroke="#046A44" stroke-width="1"/>
<rect x="103.4" y="172.6" width="6.4" height="1.0" fill="#046A44"/>
<line x1="117.0" y1="165.2" x2="117.0" y2="183.2" stroke="#046A44" stroke-width="1"/>
<rect x="113.8" y="165.5" width="6.4" height="11.2" fill="#046A44"/>
<line x1="127.4" y1="160.3" x2="127.4" y2="172.0" stroke="#046A44" stroke-width="1"/>
<rect x="124.2" y="164.5" width="6.4" height="6.0" fill="#046A44"/>
<line x1="137.8" y1="158.5" x2="137.8" y2="176.2" stroke="#B33124" stroke-width="1"/>
<rect x="134.5" y="164.5" width="6.4" height="2.0" fill="#B33124"/>
<line x1="148.1" y1="159.8" x2="148.1" y2="179.9" stroke="#046A44" stroke-width="1"/>
<rect x="144.9" y="167.6" width="6.4" height="1.6" fill="#046A44"/>
<line x1="158.5" y1="170.8" x2="158.5" y2="186.1" stroke="#B33124" stroke-width="1"/>
<rect x="155.3" y="179.9" width="6.4" height="3.0" fill="#B33124"/>
<line x1="168.9" y1="136.1" x2="168.9" y2="181.0" stroke="#046A44" stroke-width="1"/>
<rect x="165.7" y="142.4" width="6.4" height="38.1" fill="#046A44"/>
<line x1="179.3" y1="88.4" x2="179.3" y2="133.2" stroke="#046A44" stroke-width="1"/>
<rect x="176.1" y="93.0" width="6.4" height="32.6" fill="#046A44"/>
<line x1="189.7" y1="66.2" x2="189.7" y2="95.5" stroke="#046A44" stroke-width="1"/>
<rect x="186.4" y="77.6" width="6.4" height="2.5" fill="#046A44"/>
<line x1="200.0" y1="81.7" x2="200.0" y2="118.2" stroke="#B33124" stroke-width="1"/>
<rect x="196.8" y="92.4" width="6.4" height="16.9" fill="#B33124"/>
<line x1="210.4" y1="111.2" x2="210.4" y2="150.2" stroke="#B33124" stroke-width="1"/>
<rect x="207.2" y="118.6" width="6.4" height="28.0" fill="#B33124"/>
<line x1="220.8" y1="131.0" x2="220.8" y2="153.8" stroke="#B33124" stroke-width="1"/>
<rect x="217.6" y="134.4" width="6.4" height="14.1" fill="#B33124"/>
<line x1="231.2" y1="147.5" x2="231.2" y2="177.2" stroke="#B33124" stroke-width="1"/>
<rect x="228.0" y="153.6" width="6.4" height="17.9" fill="#B33124"/>
<line x1="241.6" y1="163.2" x2="241.6" y2="172.5" stroke="#046A44" stroke-width="1"/>
<rect x="238.4" y="168.0" width="6.4" height="3.0" fill="#046A44"/>
<line x1="252.0" y1="166.1" x2="252.0" y2="202.2" stroke="#B33124" stroke-width="1"/>
<rect x="248.7" y="174.0" width="6.4" height="10.5" fill="#B33124"/>
<line x1="262.3" y1="180.3" x2="262.3" y2="196.7" stroke="#046A44" stroke-width="1"/>
<rect x="259.1" y="191.5" width="6.4" height="3.3" fill="#046A44"/>
<line x1="272.7" y1="186.6" x2="272.7" y2="202.8" stroke="#046A44" stroke-width="1"/>
<rect x="269.5" y="188.2" width="6.4" height="8.6" fill="#046A44"/>
<line x1="283.1" y1="188.2" x2="283.1" y2="204.8" stroke="#B33124" stroke-width="1"/>
<rect x="279.9" y="188.8" width="6.4" height="10.9" fill="#B33124"/>
<line x1="293.5" y1="173.6" x2="293.5" y2="193.4" stroke="#046A44" stroke-width="1"/>
<rect x="290.3" y="174.6" width="6.4" height="17.5" fill="#046A44"/>
<line x1="303.9" y1="175.1" x2="303.9" y2="193.7" stroke="#B33124" stroke-width="1"/>
<rect x="300.6" y="175.1" width="6.4" height="5.0" fill="#B33124"/>
<line x1="314.2" y1="169.4" x2="314.2" y2="192.5" stroke="#B33124" stroke-width="1"/>
<rect x="311.0" y="185.7" width="6.4" height="4.2" fill="#B33124"/>
<line x1="324.6" y1="186.9" x2="324.6" y2="210.9" stroke="#B33124" stroke-width="1"/>
<rect x="321.4" y="189.1" width="6.4" height="8.9" fill="#B33124"/>
<line x1="335.0" y1="196.5" x2="335.0" y2="232.6" stroke="#B33124" stroke-width="1"/>
<rect x="331.8" y="208.2" width="6.4" height="23.3" fill="#B33124"/>
<line x1="345.4" y1="226.1" x2="345.4" y2="243.9" stroke="#B33124" stroke-width="1"/>
<rect x="342.2" y="229.1" width="6.4" height="12.9" fill="#B33124"/>
<line x1="355.8" y1="237.1" x2="355.8" y2="258.6" stroke="#B33124" stroke-width="1"/>
<rect x="352.5" y="251.6" width="6.4" height="2.3" fill="#B33124"/>
<line x1="366.1" y1="259.0" x2="366.1" y2="280.6" stroke="#B33124" stroke-width="1"/>
<rect x="362.9" y="261.9" width="6.4" height="15.4" fill="#B33124"/>
<line x1="376.5" y1="251.8" x2="376.5" y2="272.8" stroke="#046A44" stroke-width="1"/>
<rect x="373.3" y="256.1" width="6.4" height="14.5" fill="#046A44"/>
<line x1="386.9" y1="233.1" x2="386.9" y2="249.5" stroke="#B33124" stroke-width="1"/>
<rect x="383.7" y="243.7" width="6.4" height="2.0" fill="#B33124"/>
<line x1="397.3" y1="234.5" x2="397.3" y2="249.9" stroke="#046A44" stroke-width="1"/>
<rect x="394.1" y="242.1" width="6.4" height="6.4" fill="#046A44"/>
<line x1="407.7" y1="198.8" x2="407.7" y2="232.1" stroke="#046A44" stroke-width="1"/>
<rect x="404.4" y="208.2" width="6.4" height="21.2" fill="#046A44"/>
<line x1="418.0" y1="181.5" x2="418.0" y2="199.9" stroke="#046A44" stroke-width="1"/>
<rect x="414.8" y="194.9" width="6.4" height="1.2" fill="#046A44"/>
<line x1="428.4" y1="177.0" x2="428.4" y2="204.8" stroke="#046A44" stroke-width="1"/>
<rect x="425.2" y="182.7" width="6.4" height="19.8" fill="#046A44"/>
<line x1="438.8" y1="159.0" x2="438.8" y2="186.8" stroke="#046A44" stroke-width="1"/>
<rect x="435.6" y="175.9" width="6.4" height="2.4" fill="#046A44"/>
<line x1="449.2" y1="183.3" x2="449.2" y2="204.5" stroke="#046A44" stroke-width="1"/>
<rect x="446.0" y="183.9" width="6.4" height="10.2" fill="#046A44"/>
<line x1="459.6" y1="195.3" x2="459.6" y2="211.6" stroke="#046A44" stroke-width="1"/>
<rect x="456.4" y="195.8" width="6.4" height="4.9" fill="#046A44"/>
<line x1="470.0" y1="183.7" x2="470.0" y2="208.1" stroke="#B33124" stroke-width="1"/>
<rect x="466.7" y="184.2" width="6.4" height="20.0" fill="#B33124"/>
<line x1="480.3" y1="189.5" x2="480.3" y2="206.5" stroke="#046A44" stroke-width="1"/>
<rect x="477.1" y="192.1" width="6.4" height="10.3" fill="#046A44"/>
<line x1="490.7" y1="170.6" x2="490.7" y2="219.8" stroke="#046A44" stroke-width="1"/>
<rect x="487.5" y="178.3" width="6.4" height="37.8" fill="#046A44"/>
<line x1="501.1" y1="166.5" x2="501.1" y2="181.5" stroke="#B33124" stroke-width="1"/>
<rect x="497.9" y="176.0" width="6.4" height="2.2" fill="#B33124"/>
<line x1="511.5" y1="169.0" x2="511.5" y2="197.2" stroke="#046A44" stroke-width="1"/>
<rect x="508.3" y="175.6" width="6.4" height="5.1" fill="#046A44"/>
<line x1="521.9" y1="174.4" x2="521.9" y2="195.8" stroke="#046A44" stroke-width="1"/>
<rect x="518.6" y="183.3" width="6.4" height="2.2" fill="#046A44"/>
<line x1="532.2" y1="167.5" x2="532.2" y2="185.4" stroke="#046A44" stroke-width="1"/>
<rect x="529.0" y="174.1" width="6.4" height="11.1" fill="#046A44"/>
<line x1="542.6" y1="174.7" x2="542.6" y2="187.7" stroke="#B33124" stroke-width="1"/>
<rect x="539.4" y="177.9" width="6.4" height="4.4" fill="#B33124"/>
<line x1="553.0" y1="183.5" x2="553.0" y2="216.7" stroke="#B33124" stroke-width="1"/>
<rect x="549.8" y="183.9" width="6.4" height="28.6" fill="#B33124"/>
<line x1="563.4" y1="205.7" x2="563.4" y2="226.9" stroke="#B33124" stroke-width="1"/>
<rect x="560.2" y="207.4" width="6.4" height="9.6" fill="#B33124"/>
<line x1="573.8" y1="209.8" x2="573.8" y2="222.1" stroke="#B33124" stroke-width="1"/>
<rect x="570.5" y="210.3" width="6.4" height="8.4" fill="#B33124"/>
<line x1="584.1" y1="183.2" x2="584.1" y2="209.8" stroke="#046A44" stroke-width="1"/>
<rect x="580.9" y="186.5" width="6.4" height="20.1" fill="#046A44"/>
<line x1="594.5" y1="202.7" x2="594.5" y2="237.5" stroke="#B33124" stroke-width="1"/>
<rect x="591.3" y="207.8" width="6.4" height="8.6" fill="#B33124"/>
<line x1="604.9" y1="202.4" x2="604.9" y2="220.5" stroke="#B33124" stroke-width="1"/>
<rect x="601.7" y="214.7" width="6.4" height="3.7" fill="#B33124"/>
<line x1="615.3" y1="215.9" x2="615.3" y2="228.6" stroke="#046A44" stroke-width="1"/>
<rect x="612.1" y="221.2" width="6.4" height="4.2" fill="#046A44"/>
<line x1="625.7" y1="217.0" x2="625.7" y2="231.1" stroke="#046A44" stroke-width="1"/>
<rect x="622.4" y="218.2" width="6.4" height="2.9" fill="#046A44"/>
<line x1="636.0" y1="203.6" x2="636.0" y2="216.0" stroke="#B33124" stroke-width="1"/>
<rect x="632.8" y="204.6" width="6.4" height="3.9" fill="#B33124"/>
<line x1="646.4" y1="63.2" x2="646.4" y2="142.6" stroke="#046A44" stroke-width="1"/>
<rect x="643.2" y="70.1" width="6.4" height="65.5" fill="#046A44"/>
<line x1="656.8" y1="57.4" x2="656.8" y2="86.6" stroke="#B33124" stroke-width="1"/>
<rect x="653.6" y="72.4" width="6.4" height="13.5" fill="#B33124"/>
</g>
<text x="8" y="312" fill="#6E747B" font-size="9.5" font-family="ui-monospace,SFMono-Regular,Menlo,Consolas,monospace">v2v.investing &#183; last close 158.43</text>
</svg>
