<svg xmlns="http://www.w3.org/2000/svg" viewBox="0 0 720 320" width="720" height="320" role="img" aria-label="TSLA daily candles, last 63 sessions">
<rect width="720" height="320" fill="#FFFFFF"/>
<text x="8" y="22" fill="#0C0D0E" font-size="16" font-weight="600" font-family="system-ui,-apple-system,Segoe UI,Roboto,sans-serif">TSLA</text>
<text x="60" y="22" fill="#6E747B" font-size="11" font-family="ui-monospace,SFMono-Regular,Menlo,Consolas,monospace">daily candles &#183; 2026-06-01 to 2026-08-28</text>
<text x="670" y="22" fill="#B33124" font-size="12" text-anchor="end" font-family="ui-monospace,SFMono-Regular,Menlo,Consolas,monospace" transform="translate(50,0)">-16.1%</text>
<g font-family="ui-monospace,SFMono-Regular,Menlo,Consolas,monospace">
<line x1="8" y1="294.0" x2="662" y2="294.0" stroke="#E7E6E1" stroke-width="1"/>
<text x="670" y="297.5" fill="#6E747B" font-size="10">289.21</text>
<line x1="8" y1="210.7" x2="662" y2="210.7" stroke="#E7E6E1" stroke-width="1"/>
<text x="670" y="214.2" fill="#6E747B" font-size="10">340.06</text>
<line x1="8" y1="127.3" x2="662" y2="127.3" stroke="#E7E6E1" stroke-width="1"/>
<text x="670" y="130.8" fill="#6E747B" font-size="10">390.92</text>
<line x1="8" y1="44.0" x2="662" y2="44.0" stroke="#E7E6E1" stroke-width="1"/>
<text x="670" y="47.5" fill="#6E747B" font-size="10">441.77</text>
<line x1="13.2" y1="63.9" x2="13.2" y2="87.2" stroke="#B33124" stroke-width="1"/>
<rect x="10.0" y="67.4" width="6.4" height="19.0" fill="#B33124"/>
<line x1="23.6" y1="72.4" x2="23.6" y2="90.1" stroke="#046A44" stroke-width="1"/>
<rect x="20.4" y="73.5" width="6.4" height="9.0" fill="#046A44"/>
<line x1="34.0" y1="57.4" x2="34.0" y2="86.2" stroke="#046A44" stroke-width="1"/>
<rect x="30.7" y="73.6" width="6.4" height="8.2" fill="#046A44"/>
<line x1="44.3" y1="69.3" x2="44.3" y2="84.3" stroke="#B33124" stroke-width="1"/>
<rect x="41.1" y="79.9" width="6.4" height="2.3" fill="#B33124"/>
<line x1="54.7" y1="72.0" x2="54.7" y2="131.1" stroke="#B33124" stroke-width="1"/>
<rect x="51.5" y="78.9" width="6.4" height="48.3" fill="#B33124"/>
<line x1="65.1" y1="91.2" x2="65.1" y2="121.1" stroke="#046A44" stroke-width="1"/>
<rect x="61.9" y="97.8" width="6.4" height="20.7" fill="#046A44"/>
<line x1="75.5" y1="82.1" x2="75.5" y2="138.3" stroke="#B33124" stroke-width="1"/>
<rect x="72.3" y="94.4" width="6.4" height="23.5" fill="#B33124"/>
<line x1="85.9" y1="117.2" x2="85.9" y2="145.0" stroke="#B33124" stroke-width="1"/>
<rect x="82.6" y="126.3" width="6.4" height="16.3" fill="#B33124"/>
<line x1="96.2" y1="113.2" x2="96.2" y2="144.1" stroke="#046A44" stroke-width="1"/>
<rect x="93.0" y="113.8" width="6.4" height="17.8" fill="#046A44"/>
<line x1="106.6" y1="101.5" x2="106.6" y2="134.1" stroke="#046A44" stroke-width="1"/>
<rect x="103.4" y="101.9" width="6.4" height="11.4" fill="#046A44"/>
<line x1="117.0" y1="86.2" x2="117.0" y2="100.8" stroke="#B33124" stroke-width="1"/>
<rect x="113.8" y="92.2" width="6.4" height="2.0" fill="#B33124"/>
<line x1="127.4" y1="92.1" x2="127.4" y2="111.6" stroke="#046A44" stroke-width="1"/>
<rect x="124.2" y="104.8" width="6.4" height="1.0" fill="#046A44"/>
<line x1="137.8" y1="102.7" x2="137.8" y2="122.7" stroke="#B33124" stroke-width="1"/>
<rect x="134.5" y="109.9" width="6.4" height="8.4" fill="#B33124"/>
<line x1="148.1" y1="108.3" x2="148.1" y2="137.5" stroke="#046A44" stroke-width="1"/>
<rect x="144.9" y="111.6" width="6.4" height="3.9" fill="#046A44"/>
<line x1="158.5" y1="88.3" x2="158.5" y2="121.6" stroke="#046A44" stroke-width="1"/>
<rect x="155.3" y="104.2" width="6.4" height="16.7" fill="#046A44"/>
<line x1="168.9" y1="124.1" x2="168.9" y2="146.8" stroke="#B33124" stroke-width="1"/>
<rect x="165.7" y="124.6" width="6.4" height="18.0" fill="#B33124"/>
<line x1="179.3" y1="137.7" x2="179.3" y2="156.6" stroke="#B33124" stroke-width="1"/>
<rect x="176.1" y="145.1" width="6.4" height="7.5" fill="#B33124"/>
<line x1="189.7" y1="146.7" x2="189.7" y2="159.6" stroke="#B33124" stroke-width="1"/>
<rect x="186.4" y="153.0" width="6.4" height="1.0" fill="#B33124"/>
<line x1="200.0" y1="132.4" x2="200.0" y2="163.9" stroke="#046A44" stroke-width="1"/>
<rect x="196.8" y="145.7" width="6.4" height="15.7" fill="#046A44"/>
<line x1="210.4" y1="90.7" x2="210.4" y2="146.4" stroke="#046A44" stroke-width="1"/>
<rect x="207.2" y="93.0" width="6.4" height="49.2" fill="#046A44"/>
<line x1="220.8" y1="72.2" x2="220.8" y2="102.6" stroke="#046A44" stroke-width="1"/>
<rect x="217.6" y="78.7" width="6.4" height="23.9" fill="#046A44"/>
<line x1="231.2" y1="58.6" x2="231.2" y2="82.8" stroke="#046A44" stroke-width="1"/>
<rect x="228.0" y="71.0" width="6.4" height="6.3" fill="#046A44"/>
<line x1="241.6" y1="59.4" x2="241.6" y2="130.0" stroke="#B33124" stroke-width="1"/>
<rect x="238.4" y="66.6" width="6.4" height="56.6" fill="#B33124"/>
<line x1="252.0" y1="79.7" x2="252.0" y2="128.0" stroke="#046A44" stroke-width="1"/>
<rect x="248.7" y="80.1" width="6.4" height="36.5" fill="#046A44"/>
<line x1="262.3" y1="80.4" x2="262.3" y2="109.4" stroke="#B33124" stroke-width="1"/>
<rect x="259.1" y="84.7" width="6.4" height="23.0" fill="#B33124"/>
<line x1="272.7" y1="113.1" x2="272.7" y2="128.0" stroke="#B33124" stroke-width="1"/>
<rect x="269.5" y="113.5" width="6.4" height="8.7" fill="#B33124"/>
<line x1="283.1" y1="99.6" x2="283.1" y2="127.4" stroke="#046A44" stroke-width="1"/>
<rect x="279.9" y="101.7" width="6.4" height="20.6" fill="#046A44"/>
<line x1="293.5" y1="90.9" x2="293.5" y2="107.8" stroke="#B33124" stroke-width="1"/>
<rect x="290.3" y="95.3" width="6.4" height="4.5" fill="#B33124"/>
<line x1="303.9" y1="103.3" x2="303.9" y2="126.6" stroke="#B33124" stroke-width="1"/>
<rect x="300.6" y="104.9" width="6.4" height="16.1" fill="#B33124"/>
<line x1="314.2" y1="108.8" x2="314.2" y2="121.0" stroke="#B33124" stroke-width="1"/>
<rect x="311.0" y="114.0" width="6.4" height="4.7" fill="#B33124"/>
<line x1="324.6" y1="101.7" x2="324.6" y2="127.8" stroke="#B33124" stroke-width="1"/>
<rect x="321.4" y="113.4" width="6.4" height="8.1" fill="#B33124"/>
<line x1="335.0" y1="120.1" x2="335.0" y2="136.5" stroke="#B33124" stroke-width="1"/>
<rect x="331.8" y="125.0" width="6.4" height="2.1" fill="#B33124"/>
<line x1="345.4" y1="135.9" x2="345.4" y2="149.8" stroke="#B33124" stroke-width="1"/>
<rect x="342.2" y="142.3" width="6.4" height="1.5" fill="#B33124"/>
<line x1="355.8" y1="134.4" x2="355.8" y2="162.5" stroke="#B33124" stroke-width="1"/>
<rect x="352.5" y="135.3" width="6.4" height="27.0" fill="#B33124"/>
<line x1="366.1" y1="138.6" x2="366.1" y2="161.6" stroke="#046A44" stroke-width="1"/>
<rect x="362.9" y="147.0" width="6.4" height="12.7" fill="#046A44"/>
<line x1="376.5" y1="144.9" x2="376.5" y2="156.9" stroke="#B33124" stroke-width="1"/>
<rect x="373.3" y="152.5" width="6.4" height="2.5" fill="#B33124"/>
<line x1="386.9" y1="207.3" x2="386.9" y2="250.5" stroke="#B33124" stroke-width="1"/>
<rect x="383.7" y="209.1" width="6.4" height="34.9" fill="#B33124"/>
<line x1="397.3" y1="238.7" x2="397.3" y2="265.6" stroke="#B33124" stroke-width="1"/>
<rect x="394.1" y="242.4" width="6.4" height="12.6" fill="#B33124"/>
<line x1="407.7" y1="248.5" x2="407.7" y2="269.3" stroke="#B33124" stroke-width="1"/>
<rect x="404.4" y="254.6" width="6.4" height="6.6" fill="#B33124"/>
<line x1="418.0" y1="258.0" x2="418.0" y2="275.2" stroke="#046A44" stroke-width="1"/>
<rect x="414.8" y="264.1" width="6.4" height="2.5" fill="#046A44"/>
<line x1="428.4" y1="261.5" x2="428.4" y2="280.6" stroke="#B33124" stroke-width="1"/>
<rect x="425.2" y="264.6" width="6.4" height="14.5" fill="#B33124"/>
<line x1="438.8" y1="258.5" x2="438.8" y2="274.1" stroke="#046A44" stroke-width="1"/>
<rect x="435.6" y="261.8" width="6.4" height="10.1" fill="#046A44"/>
<line x1="449.2" y1="250.9" x2="449.2" y2="273.1" stroke="#046A44" stroke-width="1"/>
<rect x="446.0" y="257.9" width="6.4" height="2.5" fill="#046A44"/>
<line x1="459.6" y1="235.9" x2="459.6" y2="259.2" stroke="#046A44" stroke-width="1"/>
<rect x="456.4" y="240.1" width="6.4" height="18.2" fill="#046A44"/>
<line x1="470.0" y1="227.9" x2="470.0" y2="242.2" stroke="#046A44" stroke-width="1"/>
<rect x="466.7" y="231.5" width="6.4" height="5.5" fill="#046A44"/>
<line x1="480.3" y1="231.8" x2="480.3" y2="243.1" stroke="#B33124" stroke-width="1"/>
<rect x="477.1" y="237.9" width="6.4" height="3.1" fill="#B33124"/>
<line x1="490.7" y1="238.6" x2="490.7" y2="250.9" stroke="#046A44" stroke-width="1"/>
<rect x="487.5" y="244.3" width="6.4" height="4.1" fill="#046A44"/>
<line x1="501.1" y1="221.0" x2="501.1" y2="241.5" stroke="#046A44" stroke-width="1"/>
<rect x="497.9" y="229.5" width="6.4" height="10.2" fill="#046A44"/>
<line x1="511.5" y1="223.8" x2="511.5" y2="233.5" stroke="#046A44" stroke-width="1"/>
<rect x="508.3" y="225.7" width="6.4" height="7.0" fill="#046A44"/>
<line x1="521.9" y1="217.0" x2="521.9" y2="227.9" stroke="#046A44" stroke-width="1"/>
<rect x="518.6" y="222.6" width="6.4" height="1.0" fill="#046A44"/>
<line x1="532.2" y1="218.1" x2="532.2" y2="237.6" stroke="#B33124" stroke-width="1"/>
<rect x="529.0" y="219.0" width="6.4" height="12.3" fill="#B33124"/>
<line x1="542.6" y1="208.1" x2="542.6" y2="235.0" stroke="#046A44" stroke-width="1"/>
<rect x="539.4" y="210.8" width="6.4" height="20.9" fill="#046A44"/>
<line x1="553.0" y1="192.3" x2="553.0" y2="218.4" stroke="#B33124" stroke-width="1"/>
<rect x="549.8" y="207.0" width="6.4" height="1.0" fill="#B33124"/>
<line x1="563.4" y1="201.8" x2="563.4" y2="214.9" stroke="#B33124" stroke-width="1"/>
<rect x="560.2" y="209.6" width="6.4" height="2.3" fill="#B33124"/>
<line x1="573.8" y1="209.9" x2="573.8" y2="225.3" stroke="#046A44" stroke-width="1"/>
<rect x="570.5" y="215.9" width="6.4" height="6.0" fill="#046A44"/>
<line x1="584.1" y1="191.7" x2="584.1" y2="217.8" stroke="#046A44" stroke-width="1"/>
<rect x="580.9" y="192.5" width="6.4" height="20.0" fill="#046A44"/>
<line x1="594.5" y1="198.5" x2="594.5" y2="212.5" stroke="#B33124" stroke-width="1"/>
<rect x="591.3" y="200.6" width="6.4" height="1.8" fill="#B33124"/>
<line x1="604.9" y1="167.3" x2="604.9" y2="199.5" stroke="#046A44" stroke-width="1"/>
<rect x="601.7" y="173.3" width="6.4" height="21.3" fill="#046A44"/>
<line x1="615.3" y1="172.7" x2="615.3" y2="197.2" stroke="#B33124" stroke-width="1"/>
<rect x="612.1" y="175.7" width="6.4" height="20.4" fill="#B33124"/>
<line x1="625.7" y1="182.9" x2="625.7" y2="195.7" stroke="#046A44" stroke-width="1"/>
<rect x="622.4" y="194.0" width="6.4" height="1.1" fill="#046A44"/>
<line x1="636.0" y1="191.2" x2="636.0" y2="206.6" stroke="#046A44" stroke-width="1"/>
<rect x="632.8" y="201.2" width="6.4" height="1.0" fill="#046A44"/>
<line x1="646.4" y1="185.0" x2="646.4" y2="201.8" stroke="#046A44" stroke-width="1"/>
<rect x="643.2" y="186.5" width="6.4" height="14.2" fill="#046A44"/>
<line x1="656.8" y1="180.0" x2="656.8" y2="202.2" stroke="#B33124" stroke-width="1"/>
<rect x="653.6" y="182.7" width="6.4" height="13.7" fill="#B33124"/>
</g>
<text x="8" y="312" fill="#6E747B" font-size="9.5" font-family="ui-monospace,SFMono-Regular,Menlo,Consolas,monospace">v2v.investing &#183; last close 348.75</text>
</svg>
